# xmcd
#
# Track frame offsets:
#	150
#	13592
#	34012
#	52065
#	68442
#	85742
#	100052
#	114070
#	134795
#	151375
#	166817
#	182835
#	197140
#	219320
#	233787
#	257340
#	274885
#	290270
#	303557
#	318865
#
# Disc length: 4504 seconds
#
# Revision: 11
# Processed by: cddbd v1.5.2PL0 Copyright (c) Steve Scherf et al.
# Submitted via: EasyCDDAExtractor 15.3.0.1
#
DISCID=0c119614
DTITLE=Yuri - Personalidad - 20 Exitos
DYEAR=1992
DGENRE=Latin
TTITLE0=Hombres Al Borde De Un Ataque De Celos
TTITLE1=Llevame A Tu Casa
TTITLE2=Imposible Amarte Como Yo
TTITLE3=Isla Del Sol
TTITLE4=No Puedo Mas
TTITLE5=Entre Mujer Y Marido
TTITLE6=Embrujada (Estoy)
TTITLE7=Un Romance
TTITLE8=Me Tienes Que Querer
TTITLE9=Tienes El Control De Mi Corazon
TTITLE10=El Apagon (Ver. Radio Mix)
TTITLE11=Fascinacion
TTITLE12=Quien Eres Tu (Quem E Voce) (Love Will Lead You Back)
TTITLE13=Mi Vecina
TTITLE14=Todo Mi Corazon
TTITLE15=Sabes Lo Que Pasa
TTITLE16=Es Inutil Ya
TTITLE17=Hola
TTITLE18=Cosas Del Amor
TTITLE19=Carnaval De Oriente
EXTD=
EXTT0=
EXTT1=
EXTT2=
EXTT3=
EXTT4=
EXTT5=
EXTT6=
EXTT7=
EXTT8=
EXTT9=
EXTT10=
EXTT11=
EXTT12=
EXTT13=
EXTT14=
EXTT15=
EXTT16=
EXTT17=
EXTT18=
EXTT19=
PLAYORDER=
